<svg width="6" height="12" viewBox="0 0 6 12" fill="none" xmlns="http://www.w3.org/2000/svg">
<path fill-rule="evenodd" clip-rule="evenodd" d="M0.144087 6.37033C0.051107 6.26523 0 6.13139 0 5.99298C0 5.85458 0.051107 5.72073 0.144087 5.61563L4.93428 0.202871C4.98544 0.14499 5.04787 0.0974369 5.11801 0.0629263C5.18815 0.0284147 5.26462 0.00762177 5.34306 0.00173473C5.42149 -0.00415325 5.50035 0.00497913 5.57514 0.0286112C5.64994 0.0522423 5.71919 0.0899115 5.77895 0.139466C5.83871 0.18902 5.88781 0.249489 5.92344 0.317421C5.95907 0.385352 5.98054 0.459415 5.98662 0.535383C5.9927 0.61135 5.98327 0.687735 5.95887 0.760173C5.93447 0.83261 5.89558 0.899685 5.84441 0.957566L1.38714 5.99298L5.84282 11.0284C5.89703 11.0857 5.93878 11.153 5.9656 11.2263C5.99242 11.2996 6.00375 11.3774 5.99891 11.455C5.99408 11.5326 5.97319 11.6084 5.93748 11.6781C5.90177 11.7477 5.85197 11.8097 5.79104 11.8603C5.7301 11.9109 5.65929 11.9491 5.58279 11.9727C5.5063 11.9963 5.4257 12.0047 5.34577 11.9975C5.26584 11.9903 5.18823 11.9676 5.11754 11.9308C5.04685 11.8939 4.98453 11.8437 4.93428 11.7831L0.144087 6.37033Z" fill="#4E5968"/>
</svg>
