<svg width="120" height="120" viewBox="0 0 120 120" fill="none" xmlns="http://www.w3.org/2000/svg">
<circle cx="60" cy="60" r="59" fill="white" stroke="#B5B5B5" stroke-width="2"/>
<path d="M52.4753 54H44.9753V53.04H48.2953V41.46C48.2953 41.24 48.3153 40.98 48.3353 40.72L45.3753 43.38L44.7553 42.66L48.5153 39.34H49.3753V53.04H52.4753V54ZM68.6127 46.08V55.4H67.5527V37.64H68.6127V45.16H71.7327V46.08H68.6127ZM60.7327 43.5C60.7327 46.56 62.8327 49.52 65.2327 50.7L64.5927 51.54C62.4927 50.44 60.8727 48.22 60.2327 45.96C59.4927 48.62 57.6527 50.82 55.6527 51.88L55.0327 51.06C57.4727 49.84 59.6927 46.8 59.6927 43.5V41.72H55.4527V40.82H59.6727V37.9H60.7327V40.82H64.9127V41.72H60.7327V43.5ZM35.0263 71.18V80.4H33.9663V62.62H35.0263V70.22H38.1463V71.18H35.0263ZM29.7063 72.44C30.2463 69.16 30.2663 66.86 30.2663 65.56H22.4263V64.68H31.3063V65.34C31.3063 66.62 31.3063 68.96 30.7663 72.54L29.7063 72.44ZM26.5663 75.3C28.6463 75.24 30.7863 75.12 32.7263 74.86L32.8063 75.66C29.0263 76.24 24.7863 76.32 21.5863 76.32L21.4063 75.38C22.6863 75.38 24.0663 75.4 25.5263 75.34V69.76H26.5663V75.3ZM55.0048 80.4H53.9648V62.64H55.0048V80.4ZM51.4248 63.12V79.42H50.4048V70.1H47.1048V69.18H50.4048V63.12H51.4248ZM44.9648 67.84C44.9648 70.96 46.6048 74.14 48.9448 75.48L48.2648 76.28C46.4248 75.16 45.0848 73.14 44.4648 70.66C43.8448 73.32 42.4048 75.56 40.5648 76.7L39.8648 75.9C42.2648 74.46 43.9448 71.22 43.9448 67.84V65.78H40.2648V64.88H48.5048V65.78H44.9648V67.84ZM77.8368 80.4H76.7968V62.64H77.8368V80.4ZM74.2568 63.12V79.42H73.2368V70.1H69.9368V69.18H73.2368V63.12H74.2568ZM67.7968 67.84C67.7968 70.96 69.4368 74.14 71.7768 75.48L71.0968 76.28C69.2568 75.16 67.9168 73.14 67.2968 70.66C66.6768 73.32 65.2368 75.56 63.3968 76.7L62.6968 75.9C65.0968 74.46 66.7768 71.22 66.7768 67.84V65.78H63.0968V64.88H71.3368V65.78H67.7968V67.84ZM82.2352 68.88C85.1352 68.62 88.6152 67.46 88.7152 65.14H82.9752V64.28H88.7552V62.46H89.8152V64.28H95.6152V65.14H89.8352C89.9352 67.46 93.4152 68.62 96.3152 68.88L95.9752 69.72C93.2552 69.46 90.2952 68.44 89.2752 66.5C88.2552 68.44 85.2952 69.46 82.5752 69.72L82.2352 68.88ZM89.7952 73.56H95.1752V77.14H84.3352V79.28H95.7552V80.14H83.2952V76.32H94.1352V74.38H83.2552V73.56H88.7352V71.6H81.2552V70.74H97.2952V71.6H89.7952V73.56Z" fill="black"/>
</svg>
