<svg width="120" height="120" viewBox="0 0 120 120" fill="none" xmlns="http://www.w3.org/2000/svg">
<circle cx="60" cy="60" r="59" fill="white" stroke="#B5B5B5" stroke-width="2"/>
<path d="M26.54 67.4H25.48V49.64H26.54V67.4ZM18.14 55.44C18.14 58.52 20.72 61.6 23.12 62.66L22.48 63.5C20.5 62.54 18.42 60.34 17.62 57.78C16.84 60.46 14.82 62.88 12.86 63.94L12.2 63.08C14.48 61.9 17.1 58.56 17.1 55.44V52.44H12.7V51.52H22.62V52.44H18.14V55.44ZM43.7584 49.66H44.8184V63.18H43.7584V61.08H39.9784V60.24H43.7584V49.66ZM36.2384 56.52C33.6184 56.52 31.8984 55.34 31.8984 53.46C31.8984 51.6 33.6184 50.42 36.2384 50.42C38.8384 50.42 40.5584 51.6 40.5584 53.46C40.5584 55.34 38.8384 56.52 36.2384 56.52ZM36.2384 51.24C34.2584 51.24 32.9184 52.16 32.9184 53.46C32.9184 54.82 34.2584 55.7 36.2384 55.7C38.2184 55.7 39.5584 54.82 39.5584 53.46C39.5584 52.16 38.2184 51.24 36.2384 51.24ZM35.8384 58.9C33.9184 58.98 32.1784 58.98 30.5784 58.98L30.4184 58.06C33.7184 58.06 38.1384 58.02 41.9784 57.54L42.0784 58.32C40.3984 58.62 38.6584 58.74 36.8984 58.84V62.46H35.8384V58.9ZM45.2784 66.96H33.1184V61.84H34.1584V66.06H45.2784V66.96ZM63.3969 67.42H62.3369V56.84H57.7569V55.96H62.3369V49.64H63.3969V67.42ZM54.8569 54.82C54.8569 57.96 57.3169 61.18 59.6569 62.36L59.0369 63.22C57.0569 62.16 55.0769 59.84 54.3369 57.18C53.5769 59.98 51.6969 62.42 49.7169 63.54L49.0369 62.7C51.3769 61.42 53.7969 58.06 53.7969 54.82V51.28H54.8569V54.82ZM86.2089 59.26H85.1489V55.02H81.1689V54.12H85.1489V49.62H86.2089V59.26ZM81.5489 59.08C79.5489 58.3 77.8489 56.7 77.1089 54.72C76.3889 56.98 74.5889 58.7 72.4889 59.52L71.9289 58.68C74.3889 57.78 76.5689 55.36 76.5689 52.68V51.74H72.3289V50.84H81.7689V51.74H77.6089V52.66C77.6089 55.12 79.6689 57.34 82.0689 58.24L81.5489 59.08ZM86.2089 60.18V67.12H75.1089V60.18H76.1689V62.72H85.1689V60.18H86.2089ZM76.1689 63.6V66.22H85.1689V63.6H76.1689ZM104.827 57.54C102.367 57.06 99.2873 55.48 98.2073 53.16C97.1473 55.5 94.0473 57.06 91.5673 57.54L91.1073 56.66C93.8273 56.24 97.6473 54.2 97.6473 51.42V50.32H98.7473V51.42C98.7473 54.12 102.607 56.24 105.267 56.66L104.827 57.54ZM98.6873 60.74V67.38H97.6273V60.74H90.1473V59.84H106.227L106.207 60.74H98.6873Z" fill="black"/>
</svg>
