<svg width="120" height="120" viewBox="0 0 120 120" fill="none" xmlns="http://www.w3.org/2000/svg">
<circle cx="60" cy="60" r="59" fill="white" stroke="#B5B5B5" stroke-width="2"/>
<path d="M53.5353 54H44.1153V53.38L49.2953 48.12C50.9553 46.46 52.1553 45.04 52.1553 43.16C52.1553 41.04 50.6753 40.12 48.9753 40.12C47.1353 40.12 45.9353 41.3 45.5553 42.88L45.4953 43.34L44.4553 43.18C44.8353 40.6 46.5953 39.16 49.0153 39.16C51.2753 39.16 53.2753 40.5 53.2753 43.14C53.2753 45.34 51.7353 46.94 50.0753 48.7L45.7553 53.12C46.1153 53.02 46.5353 52.98 47.0353 52.98H53.5353V54ZM69.6127 46.08V55.4H68.5527V37.64H69.6127V45.16H72.7327V46.08H69.6127ZM61.7327 43.5C61.7327 46.56 63.8327 49.52 66.2327 50.7L65.5927 51.54C63.4927 50.44 61.8727 48.22 61.2327 45.96C60.4927 48.62 58.6527 50.82 56.6527 51.88L56.0327 51.06C58.4727 49.84 60.6927 46.8 60.6927 43.5V41.72H56.4527V40.82H60.6727V37.9H61.7327V40.82H65.9127V41.72H61.7327V43.5ZM36.0263 71.18V80.4H34.9663V62.62H36.0263V70.22H39.1463V71.18H36.0263ZM30.7063 72.44C31.2463 69.16 31.2663 66.86 31.2663 65.56H23.4263V64.68H32.3063V65.34C32.3063 66.62 32.3063 68.96 31.7663 72.54L30.7063 72.44ZM27.5663 75.3C29.6463 75.24 31.7863 75.12 33.7263 74.86L33.8063 75.66C30.0263 76.24 25.7863 76.32 22.5863 76.32L22.4063 75.38C23.6863 75.38 25.0663 75.4 26.5263 75.34V69.76H27.5663V75.3ZM56.0048 80.4H54.9648V62.64H56.0048V80.4ZM52.4248 63.12V79.42H51.4048V70.1H48.1048V69.18H51.4048V63.12H52.4248ZM45.9648 67.84C45.9648 70.96 47.6048 74.14 49.9448 75.48L49.2648 76.28C47.4248 75.16 46.0848 73.14 45.4648 70.66C44.8448 73.32 43.4048 75.56 41.5648 76.7L40.8648 75.9C43.2648 74.46 44.9448 71.22 44.9448 67.84V65.78H41.2648V64.88H49.5048V65.78H45.9648V67.84ZM78.8368 80.4H77.7968V62.64H78.8368V80.4ZM75.2568 63.12V79.42H74.2368V70.1H70.9368V69.18H74.2368V63.12H75.2568ZM68.7968 67.84C68.7968 70.96 70.4368 74.14 72.7768 75.48L72.0968 76.28C70.2568 75.16 68.9168 73.14 68.2968 70.66C67.6768 73.32 66.2368 75.56 64.3968 76.7L63.6968 75.9C66.0968 74.46 67.7768 71.22 67.7768 67.84V65.78H64.0968V64.88H72.3368V65.78H68.7968V67.84ZM83.2352 68.88C86.1352 68.62 89.6152 67.46 89.7152 65.14H83.9752V64.28H89.7552V62.46H90.8152V64.28H96.6152V65.14H90.8352C90.9352 67.46 94.4152 68.62 97.3152 68.88L96.9752 69.72C94.2552 69.46 91.2952 68.44 90.2752 66.5C89.2552 68.44 86.2952 69.46 83.5752 69.72L83.2352 68.88ZM90.7952 73.56H96.1752V77.14H85.3352V79.28H96.7552V80.14H84.2952V76.32H95.1352V74.38H84.2552V73.56H89.7352V71.6H82.2552V70.74H98.2952V71.6H90.7952V73.56Z" fill="black"/>
</svg>
