<svg width="120" height="120" viewBox="0 0 120 120" fill="none" xmlns="http://www.w3.org/2000/svg">
<circle cx="60" cy="60" r="59" fill="white" stroke="#B5B5B5" stroke-width="2"/>
<path d="M28.2 59.52H12.14V58.62H19.62V56.24H14.2V50.46H26.14V51.36H15.24V55.34H26.28V56.24H20.66V58.62H28.2V59.52ZM20.16 61.04C23.92 61.04 26.2 62.18 26.2 64.2C26.2 66.26 23.92 67.36 20.16 67.36C16.4 67.36 14.12 66.26 14.12 64.2C14.12 62.18 16.4 61.04 20.16 61.04ZM20.16 66.5C23.2 66.5 25.14 65.64 25.14 64.2C25.14 62.76 23.2 61.9 20.16 61.9C17.12 61.9 15.18 62.76 15.18 64.2C15.18 65.64 17.12 66.5 20.16 66.5ZM44.0384 57.86V67.4H42.9784V49.64H44.0384V56.96H47.1584V57.86H44.0384ZM35.2384 51.08C37.7984 51.08 39.5784 53.48 39.5784 57.18C39.5784 60.92 37.7984 63.28 35.2384 63.28C32.6784 63.28 30.8984 60.92 30.8984 57.18C30.8984 53.48 32.6784 51.08 35.2384 51.08ZM35.2384 62.36C37.1984 62.36 38.5784 60.22 38.5784 57.18C38.5784 54.14 37.1984 52.02 35.2384 52.02C33.2784 52.02 31.8984 54.14 31.8984 57.18C31.8984 60.22 33.2784 62.36 35.2384 62.36ZM63.3569 67.42H62.2969V49.64H63.3569V67.42ZM51.4169 62.12C54.2969 62.12 56.9969 62 60.3769 61.46L60.4769 62.36C57.0769 62.9 54.3369 63.02 51.4169 63.02H49.9969V56.48H57.0169V52.28H49.9369V51.36H58.0569V57.38H51.0569V62.12H51.4169ZM72.1489 52.28V51.44H76.7889V49.48H77.8489V51.44H82.4689V52.28H72.1489ZM85.3289 56.1V61.44H84.2689V49.66H85.3289V55.18H88.1489V56.1H85.3289ZM83.1289 60.1C79.2889 60.8 74.9689 60.8 71.8889 60.8L71.7289 59.9C73.2489 59.9 74.9489 59.9 76.7889 59.84V58.32C74.6289 58.18 73.2689 57.26 73.2689 55.74C73.2689 54.12 74.8289 53.12 77.3089 53.12C79.7289 53.12 81.3289 54.12 81.3289 55.74C81.3289 57.26 80.0089 58.18 77.8489 58.32V59.8C79.6089 59.7 81.3689 59.6 83.0489 59.3L83.1289 60.1ZM74.2689 55.74C74.2689 56.86 75.4689 57.56 77.3089 57.56C79.1489 57.56 80.3489 56.86 80.3489 55.74C80.3489 54.62 79.1489 53.9 77.3089 53.9C75.4689 53.9 74.2689 54.62 74.2689 55.74ZM85.3289 62.44V67.4H84.2689V63.32H73.8689V62.44H85.3289ZM103.567 49.64H104.627V60.22H103.567V55.34H99.5673V54.44H103.567V49.64ZM99.9473 59.44C97.9473 58.66 96.2473 57.1 95.5273 55.12C94.8073 57.38 92.9873 59.12 90.8873 59.98L90.3473 59.12C92.8073 58.16 94.9673 55.8 94.9673 53.08V51.96H90.7273V51.06H100.167V51.96H96.0073V53.06C96.0073 55.46 98.0673 57.74 100.487 58.6L99.9473 59.44ZM98.8873 60.88C102.487 60.88 104.707 62.04 104.707 64.12C104.707 66.2 102.487 67.36 98.8873 67.36C95.2673 67.36 93.0673 66.2 93.0673 64.12C93.0673 62.04 95.2673 60.88 98.8873 60.88ZM98.8873 66.5C101.787 66.5 103.667 65.62 103.667 64.12C103.667 62.62 101.787 61.74 98.8873 61.74C95.9873 61.74 94.1273 62.6 94.1273 64.12C94.1273 65.64 95.9873 66.5 98.8873 66.5Z" fill="black"/>
</svg>
