<svg width="120" height="120" viewBox="0 0 120 120" fill="none" xmlns="http://www.w3.org/2000/svg">
<circle cx="60" cy="60" r="59" fill="white" stroke="#B5B5B5" stroke-width="2"/>
<path d="M35.38 67.42H34.32V49.64H35.38V67.42ZM21.88 58.64C24.36 57.84 26.54 55.74 26.54 53.08V52.98H22.24V52.1H26.54V49.76H27.6V52.1H32.02V52.98H27.6V53.08C27.6 55.66 29.8 57.64 32.3 58.44L31.8 59.28C29.68 58.52 27.9 57.14 27.08 55.12C26.34 57.22 24.5 58.74 22.4 59.48L21.88 58.64ZM27.6 62.46C29.44 62.38 31.3 62.26 33.06 61.96L33.14 62.76C29.06 63.52 24.68 63.52 21.42 63.52L21.24 62.58C22.84 62.58 24.62 62.58 26.54 62.52V58.86H27.6V62.46ZM40.5384 55.86C43.3184 55.54 46.9584 53.9 46.9584 51.56V51.38H41.0184V50.5H54.1384V51.38H48.1984V51.56C48.1984 53.9 51.8184 55.54 54.5784 55.86L54.1984 56.72C51.5984 56.34 48.5184 55.06 47.5584 52.96C46.5984 55.06 43.5584 56.34 40.9384 56.72L40.5384 55.86ZM55.5784 59.58H39.5184V58.68H47.0184V55.9H48.0784V58.68H55.5784V59.58ZM47.5784 61.32C51.3384 61.32 53.5984 62.42 53.5984 64.32C53.5984 66.26 51.3384 67.34 47.5784 67.34C43.7384 67.34 41.5184 66.26 41.5184 64.32C41.5184 62.4 43.7384 61.32 47.5784 61.32ZM47.5784 66.48C50.6184 66.48 52.5384 65.68 52.5384 64.32C52.5384 62.98 50.6184 62.18 47.5784 62.18C44.4584 62.18 42.5784 62.96 42.5784 64.32C42.5784 65.68 44.4584 66.48 47.5784 66.48ZM62.4305 52.5V51.62H67.1705V49.44H68.2305V51.62H72.9505V52.5H62.4305ZM76.0505 55.24V59.92H74.9905V49.62H76.0505V54.32H78.8305V55.24H76.0505ZM71.8705 56.64C71.8705 58.56 70.1905 59.74 67.6905 59.74C65.1505 59.74 63.4905 58.58 63.4905 56.66C63.4905 54.74 65.1505 53.56 67.6905 53.56C70.2305 53.56 71.8705 54.72 71.8705 56.64ZM64.4905 56.64C64.4905 58 65.7705 58.9 67.6905 58.9C69.6105 58.9 70.8705 58.02 70.8705 56.66C70.8705 55.3 69.6105 54.4 67.6905 54.4C65.7705 54.4 64.4905 55.28 64.4905 56.64ZM76.0505 60.74V67.12H65.0905V60.74H66.1505V62.94H74.9905V60.74H76.0505ZM66.1505 63.82V66.24H74.9905V63.82H66.1505ZM95.2289 60.26H94.1689V57.66H89.1289V56.76H94.1689V53.9H89.3889C88.1889 56.72 85.4289 58.82 81.5289 59.88L81.0889 59.02C85.5489 57.8 88.5889 55.16 88.8489 51.78H81.9289V50.88H89.9889C89.9889 51.58 89.8889 52.28 89.7089 53H94.1689V49.66H95.2289V60.26ZM95.2289 61.08V67.38H94.1689V61.96H83.5089V61.08H95.2289Z" fill="black"/>
</svg>
