<svg width="30" height="25" viewBox="0 0 30 25" fill="none" xmlns="http://www.w3.org/2000/svg">
<path d="M30 13.2079C30 20.5024 30 24.5455 15 24.5455C0 24.5455 0 20.5024 0 13.2079C0 5.91337 6.71573 0 15 0C23.2843 0 30 5.91337 30 13.2079Z" fill="#FFE0BE"/>
<path d="M30 13.2079C30 20.5024 30 24.5455 15 24.5455C0 24.5455 0 20.5024 0 13.2079C0 5.91337 6.71573 0 15 0C23.2843 0 30 5.91337 30 13.2079Z" fill="url(#paint0_linear_5585_146)" fill-opacity="0.7"/>
<path d="M24.6969 9.30967C24.329 10.7352 23.9598 11.871 21.7581 11.2584C19.5563 10.6459 19.7835 9.47052 20.1514 8.04504C20.5192 6.61956 21.835 5.74707 23.0902 6.09629C24.3454 6.44551 25.0648 7.88419 24.6969 9.30967Z" fill="#FF8C6E"/>
<path d="M24.6969 9.30967C24.329 10.7352 23.9598 11.871 21.7581 11.2584C19.5563 10.6459 19.7835 9.47052 20.1514 8.04504C20.5192 6.61956 21.835 5.74707 23.0902 6.09629C24.3454 6.44551 25.0648 7.88419 24.6969 9.30967Z" fill="url(#paint1_linear_5585_146)" fill-opacity="0.4"/>
<path d="M17.4728 6.6041C17.4728 8.07987 17.3993 9.27621 15.1198 9.27621C12.8404 9.27621 12.7669 8.07987 12.7669 6.6041C12.7669 5.12833 13.8204 3.93198 15.1198 3.93198C16.4193 3.93198 17.4728 5.12833 17.4728 6.6041Z" fill="#FF8C6E"/>
<path d="M17.4728 6.6041C17.4728 8.07987 17.3993 9.27621 15.1198 9.27621C12.8404 9.27621 12.7669 8.07987 12.7669 6.6041C12.7669 5.12833 13.8204 3.93198 15.1198 3.93198C16.4193 3.93198 17.4728 5.12833 17.4728 6.6041Z" fill="url(#paint2_linear_5585_146)" fill-opacity="0.4"/>
<path d="M10.1381 8.04504C10.5059 9.47053 10.7331 10.6459 8.53139 11.2584C6.32965 11.871 5.96041 10.7352 5.59255 9.30967C5.22468 7.88419 5.94402 6.44551 7.19924 6.09629C8.45445 5.74707 9.77022 6.61956 10.1381 8.04504Z" fill="#FF8C6E"/>
<path d="M10.1381 8.04504C10.5059 9.47053 10.7331 10.6459 8.53139 11.2584C6.32965 11.871 5.96041 10.7352 5.59255 9.30967C5.22468 7.88419 5.94402 6.44551 7.19924 6.09629C8.45445 5.74707 9.77022 6.61956 10.1381 8.04504Z" fill="url(#paint3_linear_5585_146)" fill-opacity="0.4"/>
<path d="M22.2794 17.1776C21.8764 19.365 18.7299 20.9019 16.2661 19.5471C15.461 19.1043 14.3875 19.096 13.5892 19.5518C11.0554 20.9985 7.89486 19.4501 7.57354 17.1776C7.04277 13.4237 10.1635 11.8138 13.7492 10.806C14.5162 10.5904 15.3271 10.6272 16.0862 10.8711C19.6649 12.0208 23.0096 13.215 22.2794 17.1776Z" fill="#FF8C6E"/>
<path d="M22.2794 17.1776C21.8764 19.365 18.7299 20.9019 16.2661 19.5471C15.461 19.1043 14.3875 19.096 13.5892 19.5518C11.0554 20.9985 7.89486 19.4501 7.57354 17.1776C7.04277 13.4237 10.1635 11.8138 13.7492 10.806C14.5162 10.5904 15.3271 10.6272 16.0862 10.8711C19.6649 12.0208 23.0096 13.215 22.2794 17.1776Z" fill="url(#paint4_linear_5585_146)" fill-opacity="0.4"/>
<defs>
<linearGradient id="paint0_linear_5585_146" x1="14.9265" y1="13.9333" x2="14.9265" y2="-5.07687" gradientUnits="userSpaceOnUse">
<stop stop-color="white" stop-opacity="0"/>
<stop offset="1" stop-color="white"/>
</linearGradient>
<linearGradient id="paint1_linear_5585_146" x1="15" y1="0" x2="15" y2="24.5455" gradientUnits="userSpaceOnUse">
<stop stop-color="#FF6EB4" stop-opacity="0"/>
<stop offset="1" stop-color="#FF6EAB"/>
</linearGradient>
<linearGradient id="paint2_linear_5585_146" x1="15" y1="0" x2="15" y2="24.5455" gradientUnits="userSpaceOnUse">
<stop stop-color="#FF6EB4" stop-opacity="0"/>
<stop offset="1" stop-color="#FF6EAB"/>
</linearGradient>
<linearGradient id="paint3_linear_5585_146" x1="15" y1="0" x2="15" y2="24.5455" gradientUnits="userSpaceOnUse">
<stop stop-color="#FF6EB4" stop-opacity="0"/>
<stop offset="1" stop-color="#FF6EAB"/>
</linearGradient>
<linearGradient id="paint4_linear_5585_146" x1="14.9494" y1="10.4978" x2="14.9494" y2="20.1165" gradientUnits="userSpaceOnUse">
<stop stop-color="#FF6EB4" stop-opacity="0"/>
<stop offset="1" stop-color="#FF6EAB"/>
</linearGradient>
</defs>
</svg>
