<svg width="210" height="41" viewBox="0 0 210 41" fill="none" xmlns="http://www.w3.org/2000/svg">
<path d="M50 22.0132C50 34.1707 50 40.9091 25 40.9091C0 40.9091 0 34.1707 0 22.0132C0 9.85562 11.1929 0 25 0C38.8071 0 50 9.85562 50 22.0132Z" fill="#FFE0BE"/>
<path d="M50 22.0132C50 34.1707 50 40.9091 25 40.9091C0 40.9091 0 34.1707 0 22.0132C0 9.85562 11.1929 0 25 0C38.8071 0 50 9.85562 50 22.0132Z" fill="url(#paint0_linear_6488_1474)" fill-opacity="0.7"/>
<path d="M41.1615 15.5161C40.5484 17.8919 39.933 19.785 36.2634 18.764C32.5939 17.7431 32.9725 15.7842 33.5856 13.4084C34.1987 11.0326 36.3917 9.57845 38.4837 10.1605C40.5757 10.7425 41.7746 13.1403 41.1615 15.5161Z" fill="#FF8C6E"/>
<path d="M41.1615 15.5161C40.5484 17.8919 39.933 19.785 36.2634 18.764C32.5939 17.7431 32.9725 15.7842 33.5856 13.4084C34.1987 11.0326 36.3917 9.57845 38.4837 10.1605C40.5757 10.7425 41.7746 13.1403 41.1615 15.5161Z" fill="url(#paint1_linear_6488_1474)" fill-opacity="0.4"/>
<path d="M29.1213 11.0068C29.1213 13.4664 28.9988 15.4604 25.1997 15.4604C21.4007 15.4604 21.2782 13.4664 21.2782 11.0068C21.2782 8.54721 23.0339 6.5533 25.1997 6.5533C27.3656 6.5533 29.1213 8.54721 29.1213 11.0068Z" fill="#FF8C6E"/>
<path d="M29.1213 11.0068C29.1213 13.4664 28.9988 15.4604 25.1997 15.4604C21.4007 15.4604 21.2782 13.4664 21.2782 11.0068C21.2782 8.54721 23.0339 6.5533 25.1997 6.5533C27.3656 6.5533 29.1213 8.54721 29.1213 11.0068Z" fill="url(#paint2_linear_6488_1474)" fill-opacity="0.4"/>
<path d="M16.8968 13.4084C17.5099 15.7842 17.8886 17.7431 14.219 18.764C10.5494 19.785 9.93402 17.8919 9.32092 15.5161C8.70781 13.1403 9.9067 10.7425 11.9987 10.1605C14.0908 9.57845 16.2837 11.0326 16.8968 13.4084Z" fill="#FF8C6E"/>
<path d="M16.8968 13.4084C17.5099 15.7842 17.8886 17.7431 14.219 18.764C10.5494 19.785 9.93402 17.8919 9.32092 15.5161C8.70781 13.1403 9.9067 10.7425 11.9987 10.1605C14.0908 9.57845 16.2837 11.0326 16.8968 13.4084Z" fill="url(#paint3_linear_6488_1474)" fill-opacity="0.4"/>
<path d="M37.1324 28.6293C36.4606 32.275 31.2165 34.8365 27.1101 32.5784C25.7683 31.8406 23.9792 31.8267 22.6487 32.5863C18.4257 34.9975 13.1581 32.4169 12.6226 28.6293C11.7379 22.3729 16.9392 19.6897 22.9153 18.01C24.1936 17.6507 25.5451 17.712 26.8103 18.1185C32.7748 20.0346 38.3493 22.0249 37.1324 28.6293Z" fill="#FF8C6E"/>
<path d="M37.1324 28.6293C36.4606 32.275 31.2165 34.8365 27.1101 32.5784C25.7683 31.8406 23.9792 31.8267 22.6487 32.5863C18.4257 34.9975 13.1581 32.4169 12.6226 28.6293C11.7379 22.3729 16.9392 19.6897 22.9153 18.01C24.1936 17.6507 25.5451 17.712 26.8103 18.1185C32.7748 20.0346 38.3493 22.0249 37.1324 28.6293Z" fill="url(#paint4_linear_6488_1474)" fill-opacity="0.4"/>
<path d="M90.0273 5.83984V36.0547H86.0098V20.8809H83.0879V34.5938H79.2031V6.33789H83.0879V17.4941H86.0098V5.83984H90.0273ZM76.0156 9.32617V12.7461H69.0098V25.6289C71.9316 25.6123 74.5215 25.4629 77.4434 24.9316L77.7422 28.3848C74.0566 29.082 70.8359 29.1816 66.8516 29.2148H64.7598V9.32617H76.0156ZM120.906 20.1172V23.4375H93.2812V20.1172H105.035V17.5273H96.6348V7.16797H117.586V10.4551H100.852V14.207H117.752V17.5273H109.186V20.1172H120.906ZM107.027 24.9648C113.568 24.9648 117.52 26.957 117.553 30.543C117.52 34.0625 113.568 36.0879 107.027 36.0879C100.42 36.0879 96.4355 34.0625 96.4355 30.543C96.4355 26.957 100.42 24.9648 107.027 24.9648ZM107.027 28.1855C102.844 28.1855 100.719 28.9824 100.752 30.543C100.719 32.1367 102.844 32.8672 107.027 32.8672C111.111 32.8672 113.27 32.1367 113.303 30.543C113.27 28.9824 111.111 28.1855 107.027 28.1855ZM131 7.96484C133.706 7.96484 135.964 9.45898 137.342 12.0488H143.982V5.83984H148.166V36.1211H143.982V24.7988H137.674C136.312 27.7871 133.922 29.5137 131 29.5137C126.418 29.5137 123.131 25.3633 123.164 18.7227C123.131 12.1484 126.418 7.96484 131 7.96484ZM131 11.7832C128.742 11.7832 127.182 14.2402 127.215 18.7227C127.182 23.2383 128.742 25.6621 131 25.6621C133.291 25.6621 134.785 23.2383 134.785 18.7227C134.785 14.2402 133.291 11.7832 131 11.7832ZM138.537 15.4688C138.72 16.4648 138.836 17.5605 138.836 18.7227C138.836 19.6689 138.753 20.5654 138.637 21.4121H143.982V15.4688H138.537ZM163.771 14.0742C163.771 18.9551 166.262 24.168 171.342 26.293L169.051 29.6133C165.481 28.1025 163.024 25.0977 161.68 21.4121C160.302 25.4131 157.795 28.7334 154.242 30.377L151.818 27.0234C156.832 24.7988 159.422 19.1875 159.422 14.0742V12.2148H153.014V8.76172H170.08V12.2148H163.771V14.0742ZM177.352 5.83984V36.0547H173.068V5.83984H177.352ZM206.072 19.3535V22.707H197.307V29.1484H209.094V32.6016H181.436V29.1484H193.09V22.707H184.689V7.96484H205.84V11.3516H188.939V19.3535H206.072Z" fill="black"/>
<defs>
<linearGradient id="paint0_linear_6488_1474" x1="24.8775" y1="23.2222" x2="24.8775" y2="-8.46146" gradientUnits="userSpaceOnUse">
<stop stop-color="white" stop-opacity="0"/>
<stop offset="1" stop-color="white"/>
</linearGradient>
<linearGradient id="paint1_linear_6488_1474" x1="25" y1="0" x2="25" y2="40.9091" gradientUnits="userSpaceOnUse">
<stop stop-color="#FF6EB4" stop-opacity="0"/>
<stop offset="1" stop-color="#FF6EAB"/>
</linearGradient>
<linearGradient id="paint2_linear_6488_1474" x1="25" y1="0" x2="25" y2="40.9091" gradientUnits="userSpaceOnUse">
<stop stop-color="#FF6EB4" stop-opacity="0"/>
<stop offset="1" stop-color="#FF6EAB"/>
</linearGradient>
<linearGradient id="paint3_linear_6488_1474" x1="25" y1="0" x2="25" y2="40.9091" gradientUnits="userSpaceOnUse">
<stop stop-color="#FF6EB4" stop-opacity="0"/>
<stop offset="1" stop-color="#FF6EAB"/>
</linearGradient>
<linearGradient id="paint4_linear_6488_1474" x1="24.9157" y1="17.4963" x2="24.9157" y2="33.5275" gradientUnits="userSpaceOnUse">
<stop stop-color="#FF6EB4" stop-opacity="0"/>
<stop offset="1" stop-color="#FF6EAB"/>
</linearGradient>
</defs>
</svg>
