<svg width="77" height="24" viewBox="0 0 77 24" fill="none" xmlns="http://www.w3.org/2000/svg">
<rect x="26" width="51" height="24" fill="#A9A9A9"/>
<path d="M33.4688 7.33984C35.0039 7.35156 36.0938 8.75781 36.1055 10.9727C36.0938 13.1875 35.0039 14.5938 33.4688 14.5938C31.9219 14.5938 30.8438 13.1875 30.8438 10.9727C30.8438 8.75781 31.9219 7.35156 33.4688 7.33984ZM33.4688 8.16016C32.4375 8.17188 31.7109 9.27344 31.7109 10.9727C31.7109 12.6719 32.4375 13.7734 33.4688 13.7734C34.5117 13.7734 35.2148 12.6719 35.2148 10.9727C35.2148 9.27344 34.5117 8.17188 33.4688 8.16016ZM38.7422 6.53125V10.6914H40.4883V11.4883H38.7422V16.9492H37.8281V6.53125H38.7422ZM46.4531 7.62109C46.4414 10.6328 45.4219 13.3867 41.6719 15.2266L41.1562 14.5234C43.1191 13.5742 44.2969 12.3672 44.9297 10.9609L41.3555 11.3008L41.2031 10.4922L45.2109 10.2227C45.3926 9.63672 45.498 9.02148 45.5391 8.38281H41.7305V7.62109H46.4531ZM49.1133 6.53125V10.7734H50.8008V11.5469H49.1133V16.9492H48.1992V6.53125H49.1133ZM60.0117 6.53125V16.9727H59.0859V6.53125H60.0117ZM54.4688 7.33984C56.0156 7.35156 57.1289 8.75781 57.1289 10.9727C57.1289 13.1875 56.0156 14.5938 54.4688 14.5938C52.9102 14.5938 51.8086 13.1875 51.8086 10.9727C51.8086 8.75781 52.9102 7.35156 54.4688 7.33984ZM54.4688 8.16016C53.4258 8.17188 52.6992 9.27344 52.6992 10.9727C52.6992 12.6719 53.4258 13.7734 54.4688 13.7734C55.5117 13.7734 56.2383 12.6719 56.2383 10.9727C56.2383 9.27344 55.5117 8.17188 54.4688 8.16016ZM71.332 14.793V15.5664H61.793V14.793H71.332ZM63.8438 7.28125V9.22656H69.2578V7.28125H70.1602V12.707H62.918V7.28125H63.8438ZM63.8438 11.9688H69.2578V9.96484H63.8438V11.9688Z" fill="black"/>
<rect width="24" height="24" fill="#A9A9A9"/>
<path d="M12.6582 15.0723V15.7168H4.70898V15.0723H8.2832V13.4316H5.70508V10.7559H10.9004V9.38867H5.68555V8.75391H11.6523V11.3809H6.4668V12.7969H11.8574V13.4316H9.03516V15.0723H12.6582ZM20.3145 8.98828V9.85742C20.3047 10.9219 20.3047 12.1133 19.9922 13.8613L19.2109 13.7734C19.543 12.1133 19.543 10.8926 19.543 9.85742V9.62305H14.1914V8.98828H20.3145ZM21.2617 14.9258V15.5605H13.3516V14.9258H16.457V11.8203H17.209V14.9258H21.2617Z" fill="white"/>
</svg>
