<svg width="46" height="46" viewBox="0 0 46 46" fill="none" xmlns="http://www.w3.org/2000/svg">
<rect width="46" height="46" rx="23" fill="#D32F2F"/>
<path d="M34.25 35.25L26.75 27.75M11.75 21.5C11.75 22.6491 11.9763 23.7869 12.4161 24.8485C12.8558 25.9101 13.5003 26.8747 14.3128 27.6872C15.1253 28.4997 16.0899 29.1442 17.1515 29.5839C18.2131 30.0237 19.3509 30.25 20.5 30.25C21.6491 30.25 22.7869 30.0237 23.8485 29.5839C24.9101 29.1442 25.8747 28.4997 26.6872 27.6872C27.4997 26.8747 28.1442 25.9101 28.5839 24.8485C29.0237 23.7869 29.25 22.6491 29.25 21.5C29.25 20.3509 29.0237 19.2131 28.5839 18.1515C28.1442 17.0899 27.4997 16.1253 26.6872 15.3128C25.8747 14.5003 24.9101 13.8558 23.8485 13.4161C22.7869 12.9763 21.6491 12.75 20.5 12.75C19.3509 12.75 18.2131 12.9763 17.1515 13.4161C16.0899 13.8558 15.1253 14.5003 14.3128 15.3128C13.5003 16.1253 12.8558 17.0899 12.4161 18.1515C11.9763 19.2131 11.75 20.3509 11.75 21.5Z" stroke="white" stroke-width="2" stroke-linecap="round" stroke-linejoin="round"/>
</svg>
