<svg width="120" height="120" viewBox="0 0 120 120" fill="none" xmlns="http://www.w3.org/2000/svg">
<circle cx="60" cy="60" r="59" fill="white" stroke="#B5B5B5" stroke-width="2"/>
<path d="M38.58 59.76H37.52V49.64H38.58V59.76ZM34.22 58.88C32.14 58.08 30.38 56.42 29.58 54.3C28.8 56.56 27.08 58.34 24.94 59.22L24.4 58.38C26.88 57.42 29.04 54.9 29.04 52.08V50.34H30.08V52.08C30.08 54.82 32.28 57.14 34.78 58.04L34.22 58.88ZM38.58 60.9V67.12H27.3V60.9H38.58ZM37.54 66.22V61.78H28.34V66.22H37.54ZM43.6184 56.56C46.5384 56.18 49.9984 54.78 49.9984 52.34H44.2584V51.46H50.0384V49.5H51.0984V51.46H56.8984V52.34H51.1184C51.1184 54.78 54.5784 56.18 57.4984 56.56L57.1584 57.4C54.5184 57.02 51.5784 55.92 50.5584 53.9C49.5384 55.92 46.5984 57.02 43.9584 57.4L43.6184 56.56ZM58.5784 59.7H42.5184V58.82H58.5784V59.7ZM50.5584 61.54C54.3984 61.54 56.5984 62.52 56.5984 64.44C56.5984 66.36 54.3984 67.34 50.5584 67.34C46.7184 67.34 44.5184 66.36 44.5184 64.44C44.5184 62.52 46.7184 61.54 50.5584 61.54ZM50.5584 66.5C53.6184 66.5 55.5384 65.72 55.5384 64.44C55.5384 63.14 53.6184 62.36 50.5584 62.36C47.4984 62.36 45.5784 63.14 45.5784 64.44C45.5784 65.72 47.4984 66.5 50.5584 66.5ZM61.8169 59.32V51.24H69.7369V52.98H74.3369V49.64H75.3969V62.64H74.3369V57.68H69.7369V59.32H61.8169ZM62.8369 52.12V58.44H68.6969V52.12H62.8369ZM69.7369 56.76H74.3369V53.88H69.7369V56.76ZM75.8369 66.96H64.1969V61.5H65.2569V66.06H75.8369V66.96ZM93.7753 59.26H92.7153V55.02H88.7353V54.12H92.7153V49.62H93.7753V59.26ZM89.1153 59.08C87.1153 58.3 85.4153 56.7 84.6753 54.72C83.9553 56.98 82.1553 58.7 80.0553 59.52L79.4953 58.68C81.9553 57.78 84.1353 55.36 84.1353 52.68V51.74H79.8953V50.84H89.3353V51.74H85.1753V52.66C85.1753 55.12 87.2353 57.34 89.6353 58.24L89.1153 59.08ZM93.7753 60.18V67.12H82.6753V60.18H83.7353V62.72H92.7353V60.18H93.7753ZM83.7353 63.6V66.22H92.7353V63.6H83.7353Z" fill="black"/>
</svg>
