<svg width="120" height="120" viewBox="0 0 120 120" fill="none" xmlns="http://www.w3.org/2000/svg">
<circle cx="60" cy="60" r="59" fill="white" stroke="#B5B5B5" stroke-width="2"/>
<path d="M36.6 67.42H35.54V56.84H30.96V55.96H35.54V49.64H36.6V67.42ZM28.06 54.82C28.06 57.96 30.52 61.18 32.86 62.36L32.24 63.22C30.26 62.16 28.28 59.84 27.54 57.18C26.78 59.98 24.9 62.42 22.92 63.54L22.24 62.7C24.58 61.42 27 58.06 27 54.82V51.28H28.06V54.82ZM42.4784 51.3V50.4H54.6184V54.58H43.5984V57.28H54.9984V58.16H42.5384V53.74H53.5784V51.3H42.4784ZM52.1384 61.22V67.4H51.0784V61.22H46.0384V67.4H44.9784V61.22H40.4984V60.32H56.6384V61.22H52.1384ZM63.4305 52.5V51.62H68.1705V49.44H69.2305V51.62H73.9505V52.5H63.4305ZM77.0505 55.24V59.92H75.9905V49.62H77.0505V54.32H79.8305V55.24H77.0505ZM72.8705 56.64C72.8705 58.56 71.1905 59.74 68.6905 59.74C66.1505 59.74 64.4905 58.58 64.4905 56.66C64.4905 54.74 66.1505 53.56 68.6905 53.56C71.2305 53.56 72.8705 54.72 72.8705 56.64ZM65.4905 56.64C65.4905 58 66.7705 58.9 68.6905 58.9C70.6105 58.9 71.8705 58.02 71.8705 56.66C71.8705 55.3 70.6105 54.4 68.6905 54.4C66.7705 54.4 65.4905 55.28 65.4905 56.64ZM77.0505 60.74V67.12H66.0905V60.74H67.1505V62.94H75.9905V60.74H77.0505ZM67.1505 63.82V66.24H75.9905V63.82H67.1505ZM96.2289 60.26H95.1689V57.66H90.1289V56.76H95.1689V53.9H90.3889C89.1889 56.72 86.4289 58.82 82.5289 59.88L82.0889 59.02C86.5489 57.8 89.5889 55.16 89.8489 51.78H82.9289V50.88H90.9889C90.9889 51.58 90.8889 52.28 90.7089 53H95.1689V49.66H96.2289V60.26ZM96.2289 61.08V67.38H95.1689V61.96H84.5089V61.08H96.2289Z" fill="black"/>
</svg>
